<svg width="20" height="20" viewBox="0 0 20 20" fill="none" xmlns="http://www.w3.org/2000/svg">
<path fill-rule="evenodd" clip-rule="evenodd" d="M10 19.25C15.1086 19.25 19.25 15.1086 19.25 10C19.25 4.89137 15.1086 0.75 10 0.75C4.89137 0.75 0.75 4.89137 0.75 10C0.75 15.1086 4.89137 19.25 10 19.25ZM15.0511 7.35876C15.332 7.05442 15.3131 6.57992 15.0088 6.29894C14.7044 6.01797 14.2299 6.03691 13.9489 6.34126L8.65651 12.0739L6.02462 9.49778C5.7286 9.20804 5.25376 9.21313 4.96402 9.50914C4.67428 9.80516 4.67937 10.28 4.97538 10.5697L8.15913 13.686C8.304 13.8278 8.50009 13.9049 8.70273 13.8998C8.90537 13.8946 9.09731 13.8077 9.23482 13.6588L15.0511 7.35876Z" fill="#0CBC33"/>
</svg>
